<?xml version="1.0" encoding="UTF-8"?>
<svg id="Capa_2" data-name="Capa 2" xmlns="http://www.w3.org/2000/svg" viewBox="0 0 15.255 17.279">
  <g id="TÍTULO_LETRAS_POR_SEPARADO" data-name="TÍTULO LETRAS POR SEPARADO">
    <g id="p1-permanent-center">
      <g id="Permanent">
        <g id="E1-Titulo-Permanent" style="isolation: isolate;">
          <g style="isolation: isolate;">
            <g style="isolation: isolate;">
              <path d="M0,16.568L6.37,0l6.086,2.34c.645.248,1.179.627,1.604,1.138.424.512.734,1.096.931,1.751.196.655.284,1.341.26,2.055-.023.715-.161,1.398-.412,2.052-.263.685-.619,1.307-1.07,1.865-.451.559-.961,1.015-1.529,1.367-.568.354-1.174.576-1.814.668-.641.093-1.285.015-1.929-.233l-4.358-1.676-2.288,5.951-1.851-.711ZM4.856,9.462l4.256,1.636c.384.148.765.191,1.142.131s.736-.208,1.078-.442c.341-.234.657-.539.941-.911.285-.373.517-.793.696-1.259.186-.482.287-.961.305-1.437.017-.475-.034-.915-.155-1.318-.12-.403-.308-.753-.563-1.048-.258-.295-.563-.511-.92-.647l-4.133-1.589-2.646,6.884Z" style="fill: #bebd9e;"/>
            </g>
          </g>
        </g>
      </g>
    </g>
  </g>
</svg>