<?xml version="1.0" encoding="UTF-8"?>
<svg id="Capa_2" data-name="Capa 2" xmlns="http://www.w3.org/2000/svg" viewBox="0 0 12.835 18.601">
  <g id="Logo_Patricia_SanJuan" data-name="Logo Patricia SanJuan">
    <g id="TÍTULO_LETRAS_POR_SEPARADO" data-name="TÍTULO LETRAS POR SEPARADO">
      <g id="Permanent">
        <g id="R1-Titulo-Permanent" style="isolation: isolate;">
          <g style="isolation: isolate;">
            <g style="isolation: isolate;">
              <path d="M0,17.704L1.272,0l7.002.503c.722.052,1.374.262,1.958.629.583.368,1.074.838,1.473,1.409.398.572.697,1.203.894,1.894s.271,1.386.22,2.083c-.044.616-.167,1.205-.369,1.766-.203.562-.47,1.065-.804,1.509-.333.444-.722.817-1.168,1.12s-.936.509-1.468.621l3.474,7.067-2.35-.168-3.274-6.626-4.331-.312-.457,6.358-2.073-.149ZM2.673,9.5l4.952.356c.43.031.825-.041,1.185-.215.359-.175.675-.423.945-.747.27-.323.49-.705.661-1.143.17-.439.273-.899.308-1.382.036-.499-.011-.974-.141-1.426-.129-.451-.316-.858-.561-1.218-.244-.36-.541-.648-.887-.865-.347-.217-.721-.341-1.12-.369l-4.814-.346-.528,7.356Z" style="fill: #bebd9e;"/>
            </g>
          </g>
        </g>
      </g>
    </g>
  </g>
</svg>