<?xml version="1.0" encoding="UTF-8"?>
<svg id="Capa_2" data-name="Capa 2" xmlns="http://www.w3.org/2000/svg" viewBox="0 0 80.785 83.773">
  <g id="TÍTULO_LETRAS_POR_SEPARADO" data-name="TÍTULO LETRAS POR SEPARADO">
    <g id="C-1">
      <path d="M0,41.188c0-4.963.985-9.908,2.956-14.835,1.97-4.925,4.86-9.346,8.669-13.264,3.81-3.916,8.473-7.077,13.99-9.482,5.517-2.403,11.777-3.607,18.784-3.607,8.319,0,15.455,1.669,21.411,5.004,5.955,3.336,10.377,7.679,13.267,13.031l-9.326,5.352c-1.402-2.636-3.087-4.847-5.057-6.632-1.971-1.783-4.117-3.218-6.437-4.305-2.321-1.086-4.708-1.861-7.159-2.327-2.453-.466-4.86-.698-7.225-.698-5.168,0-9.743.951-13.727,2.851-3.986,1.901-7.335,4.383-10.049,7.446-2.715,3.065-4.751,6.516-6.108,10.355-1.358,3.84-2.036,7.699-2.036,11.577,0,4.345.809,8.476,2.43,12.392,1.62,3.917,3.875,7.388,6.765,10.413,2.89,3.025,6.305,5.431,10.246,7.214,3.941,1.785,8.23,2.676,12.873,2.676,2.451,0,4.969-.271,7.553-.814,2.582-.542,5.057-1.414,7.421-2.618,2.365-1.201,4.575-2.714,6.634-4.537,2.057-1.821,3.744-4.015,5.057-6.574l9.852,4.771c-1.49,3.104-3.569,5.838-6.24,8.203-2.672,2.367-5.693,4.363-9.063,5.992-3.372,1.629-6.941,2.87-10.706,3.723-3.767.853-7.444,1.28-11.034,1.28-6.394,0-12.261-1.24-17.602-3.724-5.343-2.481-9.963-5.719-13.858-9.715-3.897-3.994-6.919-8.532-9.063-13.613-2.147-5.079-3.218-10.257-3.218-15.533Z" style="fill: #bfbba1;"/>
    </g>
  </g>
</svg>