<?xml version="1.0" encoding="UTF-8"?>
<svg id="Capa_2" data-name="Capa 2" xmlns="http://www.w3.org/2000/svg" viewBox="0 0 83.614 102.904">
  <g id="TÍTULO_LETRAS_POR_SEPARADO" data-name="TÍTULO LETRAS POR SEPARADO">
    <g id="P-1">
      <path d="M0,102.904V0h48.434c5.126,0,9.843.942,14.154,2.826,4.308,1.884,8.018,4.397,11.127,7.537,3.109,3.141,5.535,6.667,7.281,10.58,1.744,3.913,2.618,7.898,2.618,11.957,0,4.253-.818,8.358-2.455,12.319-1.636,3.963-3.955,7.489-6.954,10.58-3.001,3.094-6.602,5.558-10.799,7.393-4.201,1.836-8.864,2.753-13.99,2.753H14.727v36.959H0ZM14.727,54.351h33.871c3.053,0,5.809-.555,8.263-1.666,2.455-1.11,4.554-2.657,6.3-4.639,1.744-1.979,3.109-4.275,4.091-6.884.981-2.609,1.473-5.363,1.473-8.262,0-2.994-.573-5.798-1.718-8.406s-2.674-4.878-4.582-6.812c-1.91-1.932-4.147-3.428-6.709-4.492-2.564-1.062-5.264-1.595-8.1-1.595H14.727v42.756Z" style="fill: #bfbba1;"/>
    </g>
  </g>
</svg>