<?xml version="1.0" encoding="UTF-8"?>
<svg id="Capa_2" data-name="Capa 2" xmlns="http://www.w3.org/2000/svg" viewBox="0 0 69.401 80.526">
  <g id="TÍTULO_LETRAS_POR_SEPARADO" data-name="TÍTULO LETRAS POR SEPARADO">
    <g id="R-1">
      <path d="M0,80.526V0h38.926c4.012,0,7.703.736,11.076,2.211,3.371,1.475,6.274,3.441,8.707,5.898,2.433,2.458,4.332,5.217,5.698,8.279,1.364,3.062,2.048,6.181,2.048,9.356,0,2.799-.448,5.501-1.344,8.109-.896,2.609-2.177,4.973-3.841,7.089-1.665,2.118-3.671,3.933-6.018,5.444-2.349,1.514-4.974,2.608-7.875,3.289l22.024,30.85h-13.061l-20.744-28.922H11.524v28.922H0ZM11.524,42.531h27.53c2.389,0,4.545-.453,6.466-1.361,1.92-.907,3.563-2.135,4.93-3.686,1.364-1.549,2.433-3.346,3.201-5.388.768-2.041,1.152-4.157,1.152-6.352,0-2.268-.448-4.403-1.345-6.408-.896-2.002-2.093-3.779-3.585-5.33-1.495-1.549-3.245-2.76-5.25-3.63-2.007-.868-4.12-1.304-6.338-1.304H11.524v33.458Z" style="fill: #bfbba1;"/>
    </g>
  </g>
</svg>