<?xml version="1.0" encoding="UTF-8"?>
<svg id="Capa_2" data-name="Capa 2" xmlns="http://www.w3.org/2000/svg" viewBox="0 0 52.014 83.767">
  <g id="TÍTULO_LETRAS_POR_SEPARADO" data-name="TÍTULO LETRAS POR SEPARADO">
    <g id="J-1-2a-Palabra">
      <path d="M3.021,70.155c1.75,1.087,4.114,2.056,7.093,2.908,2.976.854,6.348,1.28,10.113,1.28,4.466,0,8.013-.698,10.64-2.095s4.617-3.47,5.976-6.225c1.356-2.752,2.254-6.146,2.693-10.18.437-4.032.656-8.686.656-13.961V0h11.821v41.884c0,6.282-.328,12.003-.985,17.16-.656,5.159-2.102,9.561-4.334,13.205-2.233,3.646-5.431,6.478-9.589,8.493-4.16,2.016-9.785,3.024-16.878,3.024-7.881,0-14.625-1.705-20.228-5.118l3.021-8.493Z" style="fill: #bfbba1;"/>
    </g>
  </g>
</svg>