<?xml version="1.0" encoding="UTF-8"?>
<svg id="Capa_2" data-name="Capa 2" xmlns="http://www.w3.org/2000/svg" viewBox="0 0 86.46 101.085">
  <g id="TÍTULO_LETRAS_POR_SEPARADO" data-name="TÍTULO LETRAS POR SEPARADO">
    <g id="S-1-2a-Palabra">
      <path d="M74.763,21.562c-1.264-1.307-2.951-2.566-5.058-3.78-2.109-1.212-4.48-2.311-7.113-3.29-2.635-.98-5.507-1.772-8.614-2.381-3.109-.605-6.35-.909-9.721-.909-8.748,0-15.149,1.448-19.204,4.34-4.058,2.895-6.086,6.86-6.086,11.9,0,2.708.578,4.948,1.739,6.721,1.158,1.773,2.976,3.29,5.453,4.55,2.475,1.26,5.557,2.358,9.246,3.29,3.688.935,8.062,1.914,13.119,2.94,5.794,1.12,11.037,2.404,15.728,3.85,4.688,1.448,8.693,3.244,12.013,5.391,3.319,2.148,5.849,4.76,7.587,7.84,1.739,3.08,2.608,6.86,2.608,11.341,0,4.761-1.055,8.891-3.161,12.391-2.109,3.5-4.979,6.395-8.615,8.681-3.635,2.288-7.93,3.968-12.882,5.04-4.954,1.071-10.328,1.61-16.122,1.61-8.642,0-16.834-1.19-24.579-3.57s-14.778-5.856-21.101-10.431l6.796-10.641c1.685,1.588,3.873,3.175,6.56,4.761,2.688,1.588,5.742,3.01,9.168,4.27,3.423,1.261,7.113,2.288,11.064,3.08,3.951.794,8.086,1.19,12.408,1.19,8.007,0,14.226-1.26,18.651-3.78s6.639-6.3,6.639-11.341c0-2.8-.712-5.156-2.134-7.07-1.423-1.911-3.505-3.569-6.244-4.97-2.741-1.4-6.14-2.636-10.195-3.71-4.058-1.072-8.668-2.17-13.83-3.29-5.69-1.212-10.696-2.521-15.016-3.921-4.322-1.399-7.931-3.08-10.827-5.04-2.899-1.96-5.086-4.34-6.56-7.14-1.478-2.801-2.213-6.161-2.213-10.081,0-4.76,1-8.96,3.003-12.601,2-3.64,4.794-6.72,8.377-9.24,3.581-2.521,7.849-4.41,12.804-5.67,4.951-1.261,10.325-1.891,16.122-1.891,7.587,0,14.436,1.028,20.548,3.08,6.11,2.055,11.539,4.809,16.28,8.261l-6.639,10.221Z" style="fill: #bfbba1;"/>
    </g>
  </g>
</svg>