<?xml version="1.0" encoding="UTF-8"?>
<svg id="Capa_2" data-name="Capa 2" xmlns="http://www.w3.org/2000/svg" viewBox="0 0 77.445 81.07">
  <g id="TÍTULO_LETRAS_POR_SEPARADO" data-name="TÍTULO LETRAS POR SEPARADO">
    <g id="U-1-2a-Palabra">
      <path d="M38.658,71.886c5.291,0,9.685-.907,13.186-2.722,3.498-1.813,6.292-4.176,8.384-7.086,2.091-2.909,3.562-6.236,4.417-9.979.852-3.741,1.279-7.54,1.279-11.395V0h11.521v40.705c0,5.442-.704,10.602-2.112,15.477-1.408,4.876-3.648,9.167-6.721,12.869-3.072,3.705-7.062,6.633-11.969,8.788-4.908,2.154-10.86,3.231-17.857,3.231-7.254,0-13.356-1.135-18.305-3.402-4.95-2.268-8.94-5.272-11.969-9.014-3.03-3.742-5.206-8.051-6.528-12.926-1.324-4.876-1.984-9.883-1.984-15.023V0h11.521v40.705c0,4.007.448,7.88,1.345,11.622.896,3.741,2.388,7.049,4.479,9.921,2.091,2.873,4.864,5.198,8.321,6.973,3.456,1.777,7.786,2.665,12.992,2.665Z" style="fill: #bfbba1;"/>
    </g>
  </g>
</svg>