<?xml version="1.0" encoding="UTF-8"?>
<svg id="Capa_2" data-name="Capa 2" xmlns="http://www.w3.org/2000/svg" viewBox="0 0 17.85 12.018">
  <g id="TÍTULO_LETRAS_POR_SEPARADO" data-name="TÍTULO LETRAS POR SEPARADO">
    <g id="u2-permanent-center">
      <g id="Make_Up" data-name="Make Up">
        <g id="P2-Titulo-MakeUp" style="isolation: isolate;">
          <g style="isolation: isolate;">
            <path d="M17.804,12.018l-17.804-.397.152-6.804c.016-.72.194-1.379.533-1.977.339-.598.786-1.109,1.339-1.535.553-.424,1.17-.751,1.853-.982C4.56.094,5.252-.014,5.954.001c.736.017,1.444.147,2.124.393s1.283.585,1.808,1.018c.526.434.941.949,1.245,1.546.305.597.449,1.256.433,1.977l-.108,4.873,6.395.143-.046,2.069ZM9.45,9.762l.106-4.758c.01-.429-.078-.818-.263-1.167-.184-.349-.445-.65-.782-.903-.337-.252-.73-.454-1.179-.601-.448-.148-.923-.228-1.425-.239-.518-.011-1.004.059-1.459.209-.455.151-.853.357-1.193.618-.34.261-.606.569-.798.925-.192.356-.292.733-.301,1.131l-.103,4.62,7.397.165Z" style="fill: #bebd9e;"/>
          </g>
        </g>
      </g>
    </g>
  </g>
</svg>