<?xml version="1.0" encoding="UTF-8"?>
<svg id="Capa_2" data-name="Capa 2" xmlns="http://www.w3.org/2000/svg" viewBox="0 0 18.019 13.32">
  <g id="TÍTULO_LETRAS_POR_SEPARADO" data-name="TÍTULO LETRAS POR SEPARADO">
    <g id="u1-makeup-center">
      <g id="TÍTULO_LETRAS_POR_SEPARADO-2" data-name="TÍTULO LETRAS POR SEPARADO">
        <g id="Make_Up" data-name="Make Up">
          <g id="U2-Titulo-MakeUp" style="isolation: isolate;">
            <g style="isolation: isolate;">
              <path d="M15.992,6.922c.02-.896-.164-1.644-.55-2.246-.387-.602-.897-1.086-1.531-1.455-.633-.369-1.361-.634-2.183-.797s-1.657-.254-2.507-.273L.249,1.951l.043-1.951,8.973.2c1.2.027,2.334.172,3.404.434,1.069.263,2.007.664,2.811,1.202.806.538,1.436,1.229,1.892,2.07.457.842.671,1.855.645,3.04-.028,1.229-.301,2.256-.819,3.083s-1.196,1.489-2.032,1.982c-.836.495-1.794.842-2.874,1.042-1.08.2-2.187.287-3.319.262l-8.973-.2.043-1.951,8.973.2c.883.02,1.738-.037,2.567-.17.828-.133,1.562-.37,2.204-.71.641-.34,1.164-.797,1.568-1.374.405-.577.617-1.306.637-2.188Z" style="fill: #bebd9e;"/>
            </g>
          </g>
        </g>
      </g>
    </g>
  </g>
</svg>