<?xml version="1.0" encoding="UTF-8"?>
<svg id="Capa_2" data-name="Capa 2" xmlns="http://www.w3.org/2000/svg" viewBox="0 0 141.3404 178.2029">
  <g id="TÍTULO_LETRAS_POR_SEPARADO" data-name="TÍTULO LETRAS POR SEPARADO">
    <path d="M115.6654,8.4112C102.5635.6874,88.2417-.1394,73.6864.0163,52.5659.2231,29.6818-.2492,8.3729.2898,1.0657.7308-.1773,7.2183.0293,13.4205-.0117,61.7961-.0303,111.8471.1167,161.0338c.1382,5.7963,1.0776,14.1216,6.7627,16.6641,3.3562,1.4393,7.0832-.3317,9.2349-3.6217,3.6157-5.8408,2.7409-13.0491,2.9021-19.6447-.0006-15.0179-.0063-30.0167.0107-45.1966-.2535-6.7808,2.2004-12.3293,9.6916-12.8841,38.2005-1.8131,90.6843,7.0179,109.0105-31.9027,9.8097-21.8238-1.3205-44.7508-21.8623-55.9219l-.2013-.115ZM116.5945,61.1694c-2.5681,3.0854-6.8353,7.5065-13.1425,11.1785-7.8811,4.5884-15.0313,5.7273-25.8789,7.4551-4.1684.664-9.7905,1.0503-21.0325,1.8365,0,0-8.4715.5924-20.7097.1771-7.7539-.2631-11.1262-.753-13.544-3.2521-3.0409-3.1431-2.7972-7.7801-2.9043-9.8386-.6811-13.0847-.124-21.4333-.2578-52.7202,11.3637-.1052,27.2619-.1815,46.4315-.0411,21.3766.1566,30.8832.4659,40.9388,6.8149,4.2006,2.6522,13.4299,8.4796,15.1662,19.2713,1.4891,9.2549-3.3997,16.773-5.0669,19.1186Z" fill="#f8efda"/>
  </g>
</svg>