<?xml version="1.0" encoding="UTF-8"?>
<svg id="Capa_2" data-name="Capa 2" xmlns="http://www.w3.org/2000/svg" viewBox="0 0 141.1736 173.4024">
  <g id="Logo_Patricia_SanJuan" data-name="Logo Patricia SanJuan">
    <path d="M140.7258,40.8822c-.6306-4.0704-1.8101-7.1254-2.2239-8.1459-.4887-1.205-1.6906-3.9394-4.4053-7.7286-1.1481-1.6024-5.4748-7.4516-13.1913-13.1061-6.6587-4.8795-12.4537-7.1315-13.8408-7.6532-3.3977-1.2778-6.548-2.0272-7.3315-2.2094-2.5849-.6011-4.5577-.8772-6.3054-1.1174-1.1576-.1591-4.9379-.6542-9.8147-.7925-.2824-.008-1.6613-.033-4.4193-.0646C73.6576.0011,73.9828-.0002,73.6452,0c-2.9167.0016-2.957.0828-6.9995.136-2.1009.0276-3.6812.0267-5.9683.0253-3.002-.0018-4.5029-.0028-5.6774-.0322-.9351-.0234-1.9977-.0597-3.6136-.0594-.8104.0001-1.3358.0093-2.4831.0272-2.5198.0391-3.7797.0587-4.6129.0659-3.0781.0267-3.1635-.0662-6.8984-.0593-2.114.0039-3.8767.0369-3.8768.0313,0,0,.0014,0,.0015,0-2.4529.0392-3.3552.0267-3.3553.0267-.9703-.0136-1.2471-.0349-2.2903-.0645-2.5314-.0718-3.4813-.0199-7.6129,0-1.5923.0077-3.6856.0178-6.3871,0-3.329-.0219-3.5943-.0598-4.8065,0-3.407.168-5.1406.274-6.6129,1.3549C2.1477,1.6748.4182,2.9445.0412,4.9678c-.0565.3032-.0162.2671,0,2.5484v14.4838C.0058,28.0696.0049,33.0077.0115,36.4824c.0073,3.8718.025,6.7051.0297,13.0983.0001.2077.0001,2.375,0,6.7097v86.4194c-.0028,4.3895-.0093,4.29,0,5.2903.0235,2.5161.0651,3.1793.0532,5.3157-.0072,1.2936-.0256,1.6168-.0532,3.4908-.0314,2.1305-.0398,3.8998-.0412,5.1613.002.457.0122,1.0126.0412,1.6451.0287.626.0662,1.1215.0879,1.3871.1121,1.3727.1681,2.0591.3506,2.8331.1364.5783.3199,1.3321.8107,2.1992.1782.3149.4188.7332.8571,1.1771.3876.3926.7415.6059,1.4333,1.0164.8584.5093,1.2876.764,1.8387.9033.3439.0869.1801-.0003,1.7711.1488.7574.071,1.0475.1144,1.6179.1231.4709.0071.8472-.0138,1.0665-.0295,1.0517-.0753,1.8343-.2697,2.0555-.327.578-.1497,1.0737-.3302,1.4422-.4813.4637-.1902.8019-.3651.9084-.4208.6866-.3598,1.1594-.7073,1.2673-.7875.4719-.3507.7812-.6551,1.1613-1.0322.2155-.2138.7591-.753,1.0967-1.1935.7294-.9516.9157-1.9877,1.0817-2.9717.1324-.785.1139-1.909.0769-4.157-.0079-.4778-.0206-1.197-.032-2.3247-.0207-2.0531.0304-2.532.0186-4.0628-.0238-3.0905-.2043-3.3918-.1708-6.1027.0172-1.3866.063-1.1995.0983-2.995.0426-2.1683-.0211-2.603-.0309-5.3675-.0079-2.2416.0339-1.9843.0418-5.6639.0034-1.5523.0001-3.5634,0-3.6451-.0031-1.7377-.0087-2.4094,0-3.6129.0114-1.5724.0302-1.6765.0427-2.9677.0221-2.2727-.0322-2.3373-.0427-5.8065v-14.5162c-.0109-1.4855-.0057-2.604.0015-3.3708.0098-1.0349.0237-1.4561.0001-2.2097-.0056-.1782-.015-.4299-.019-.7626-.0011-.0882-.0016-.1661-.0018-.2302-.0003-.0914,0-.1586,0-.1686.0069-2.4099-.0036-2.4843-.0037-2.4844-.0525-.3707-.1537-.8153.1005-1.064.0238-.0233.0426-.0394.0617-.0511.1339-.082.3876-.0664,1.4318-.0295.3106.011.5802.0127,1.1194.0161.1869.0012.3852.0008.7742,0,1.2307-.0026,1.2751-.0085,1.6129,0,.1214.0031.1598.0053.3046.0102.851.0292,1.5528.0319,1.8814.0332.332.0013,3.0276.0063,4.4692.0201,2.0362.0195,1.5859.0553,2.9278.0553,1.3593,0,2.7025-.0369,5.1081-.0786.3707-.0064.701-.0113,1.1476-.008.5593.0042.9137.0199,1.8943.022,1.3591.003,2.2051-.0299,6.4145-.0115,5.5826.0244,5.396.088,8.9194.0825,4.5192-.007,4.4847-.111,9.8041-.1575,4.2721-.0373,4.3109.0297,10.4516,0,5.6646-.0273,7.4816-.0933,9.5304-.2419,2.14-.1553,4.0472-.2956,6.5986-.7258,2.1681-.3655,5.5367-1.0676,9.4949-2.4871.8317-.2983,4.5321-1.6477,9.0349-4.1807,2.7015-1.5197,4.6678-2.8895,6.1064-3.8972.0001,0,3.1415-2.1987,5.8154-4.481.5166-.4409.9218-.7983,1.1696-1.019.0001,0,.1102-.0981.2201-.1967,3.2543-2.9205,5.8396-5.8543,5.8397-5.8544,1.9882-2.256,4.047-4.5924,6.0177-8.1876.74-1.35,1.9613-3.6093,2.7614-6.597.4659-1.7399.7615-3.6245.8429-4.1503.2297-1.4847.3191-2.5523.3413-2.8458.0962-1.2705.1138-2.3553.1094-3.1349-.0154-2.7203-.3237-4.8707-.4471-5.6669ZM120.7923,45.7403c.0788,1.6701.2037,4.9385-1.0411,8.8844-.2416.7658-.8757,2.6379-2.1431,4.8278-1.3518,2.336-2.7427,3.8561-3.6602,4.8471-2.1224,2.2923-4.0316,3.6922-5.616,4.8412-4.2908,3.1115-8.169,4.9193-10.2581,5.8065-1.8694.7938-5.0307,2.1161-9.3364,2.9589-2.8938.5664-5.6109.7804-7.33.9158-1.6676.1313-2.9873.1826-4.6298.2464-.6067.0236-2.6652.1005-6.7683.137-1.9771.0176-3.7076.0146-7.1686.0086-4.4367-.0077-4.355-.019-6.774-.0164-.7152.0008-3.8106.005-7.9411.0508-4.01.0444-6.0149.0667-7.6771.1347-1.6859.069-2.397.1254-4.0067.1427-2.1982.0236-2.7338-.0616-5.0526-.0757-2.3029-.0139-4.2667.0551-5.4194.0968-4.3128.1559-5.1831.3788-6.0289-.3302-.4738-.3971-1.3651-1.443-1.0903-4.315V23.2886c-.0092-1.6578-.0653-3.0017-.1159-3.9355-.0338-.6239-.119-1.2662-.1284-2.2284-.0155-1.5855-.0233-2.3783.299-2.8038.4237-.5594,1.0963-.4797,4.3546-.4806,1.3226-.0004,2.6463-.0754,3.9679-.0226,4.5495.1819,7.3887-.2099,15.8711-.2591,4.2911-.0249,3.9368.0732,9.1608.0919,11.9008.0426,17.0851-.4545,26.0652.1774,1.8255.1285,4.4449.348,7.7516,1.0736,1.4178.3111,4.576,1.0668,8.4336,2.6401,3.003,1.2247,5.1474,2.4287,7.2413,3.5991,2.7851,1.5568,4.576,2.5579,6.7742,4.2581,1.6317,1.262,4.8889,3.9929,7.9355,8.3226,1.4068,1.9993,2.4798,3.4776,3.2903,5.8065.8481,2.437.9572,4.4325,1.0411,6.2124Z" style="fill: #f8efda;"/>
  </g>
</svg>