<?xml version="1.0" encoding="UTF-8"?>
<svg id="Capa_2" data-name="Capa 2" xmlns="http://www.w3.org/2000/svg" viewBox="0 0 98.1796 121.4126">
  <g id="TÍTULO_LETRAS_POR_SEPARADO" data-name="TÍTULO LETRAS POR SEPARADO">
    <path d="M93.1358,98.8161c-4.9437-2.0978-11.0898,1.6995-16.1409,3.1461-7.5643,2.5154-14.52,4.2577-22.232,4.5626-9.9778.166-23.1413-.4804-31.3846-7.0848-13.2137-11.2332-2.3337-26.0904,11.4198-29.6963,13.3367-4.3943,27.6088-4.7569,40.9569-8.4368,14.9115-3.2891,24.4286-15.2908,22.0654-30.6764-1.7033-13.9086-13.731-25.2811-26.6658-28.8104C53.1416-3.245,30.6502,3.0395,15.9653,11.1214c-5.8226,3.5023-11.767,6.5736-13.5918,11.9442-.8425,3.3759,1.819,6.7433,6.3093,7.0365,8.5348.0019,15.7136-7.5776,22.5723-11.2088,4.3964-2.59,8.8478-4.3551,14.2129-5.5372,8.9935-1.8751,18.9995-1.8083,27.056,2.7942,19.5501,11.4005,13.1307,32.6376-8.6588,34.2713C42.0094,53.0124,3.4115,58.2432.2304,85.4339c-2.1345,16.5046,10.8826,29.0698,25.7147,33.3605,5.5179,1.689,11.7893,2.1822,18.139,2.453,12.9987.4719,26.6147.1286,39.1254-3.6516,4.685-1.783,10.7492-4.3598,13.2888-9.1259,1.7914-3.6017.0425-8.0184-3.2347-9.5928l-.1278-.061Z" fill="#f8efda"/>
  </g>
</svg>